<?xml version="1.0" encoding="utf-8"?>
<!-- Generator: Adobe Illustrator 24.2.0, SVG Export Plug-In . SVG Version: 6.00 Build 0)  -->
<svg version="1.1" id="Layer_1" xmlns="http://www.w3.org/2000/svg" xmlns:xlink="http://www.w3.org/1999/xlink" x="0px" y="0px"
	 viewBox="0 0 1711 450" style="enable-background:new 0 0 1711 450;" xml:space="preserve">
<style type="text/css">
	.st0{clip-path:url(#SVGID_2_);fill:url(#SVGID_3_);stroke:#000000;stroke-width:0.5;stroke-miterlimit:10;}
	.st1{clip-path:url(#SVGID_5_);fill:url(#SVGID_6_);stroke:#000000;stroke-width:0.5;stroke-miterlimit:10;}
	.st2{clip-path:url(#SVGID_8_);fill:url(#SVGID_9_);stroke:#000000;stroke-width:0.5;stroke-miterlimit:10;}
	.st3{clip-path:url(#SVGID_11_);fill:url(#SVGID_12_);stroke:#000000;stroke-width:0.5;stroke-miterlimit:10;}
	.st4{clip-path:url(#SVGID_14_);fill:url(#SVGID_15_);stroke:#000000;stroke-width:0.5;stroke-miterlimit:10;}
	.st5{clip-path:url(#SVGID_17_);fill:url(#SVGID_18_);stroke:#000000;stroke-width:0.5;stroke-miterlimit:10;}
	.st6{fill:url(#SVGID_19_);}
	.st7{fill:url(#SVGID_20_);}
	.st8{fill:url(#SVGID_21_);}
	.st9{fill:url(#SVGID_22_);}
	.st10{fill:url(#SVGID_23_);}
	.st11{fill:url(#SVGID_24_);}
	.st12{fill:url(#SVGID_25_);}
	.st13{fill:url(#SVGID_26_);}
	.st14{fill:url(#SVGID_27_);}
	.st15{fill:none;}
	.st16{fill:none;stroke:#000000;stroke-width:0.75;stroke-miterlimit:10;}
	.st17{font-family:'Poppins-Medium';}
	.st18{font-size:250px;}
	.st19{letter-spacing:-18;}
</style>
<g>
	<g>
		<defs>
			<path id="SVGID_1_" d="M270.1,45.7C105.8,179.9,152.1,251.8,217.4,318c-27.6-77.4-18.5-134.2,6.6-182.1
				c-10.9,83.1-8.3,137,18.1,183.7c2.7-3.7,17-13.7,19.7-17.4c0-24.3,8.8-46.4,26.3-66.5C289.8,185.5,219.3,110.5,270.1,45.7"/>
		</defs>
		<clipPath id="SVGID_2_">
			<use xlink:href="#SVGID_1_"  style="overflow:visible;"/>
		</clipPath>
		
			<linearGradient id="SVGID_3_" gradientUnits="userSpaceOnUse" x1="6.5068" y1="379.9604" x2="13.4556" y2="379.9604" gradientTransform="matrix(0 -39.4197 18.0754 0 -6670.1191 576.0809)">
			<stop  offset="0" style="stop-color:#00A551"/>
			<stop  offset="1" style="stop-color:#FFF100"/>
		</linearGradient>
		<rect x="105.8" y="45.7" class="st0" width="183.9" height="273.9"/>
		
			<use xlink:href="#SVGID_1_"  style="overflow:visible;fill-rule:evenodd;clip-rule:evenodd;fill:none;stroke:#000000;stroke-width:0.5;stroke-miterlimit:10;"/>
	</g>
	<g>
		<defs>
			<path id="SVGID_4_" d="M268.4,303.8c16.6-98.5,81.5-143.3,238.6-85.5c-89.3-4-99.3,151.9-236.9,106.1
				c47-48.4,96.7-79.3,148.1-98.2C379.8,225.4,305.7,252.2,268.4,303.8"/>
		</defs>
		<clipPath id="SVGID_5_">
			<use xlink:href="#SVGID_4_"  style="overflow:visible;"/>
		</clipPath>
		
			<linearGradient id="SVGID_6_" gradientUnits="userSpaceOnUse" x1="4.8207" y1="393.6819" x2="8.7206" y2="393.6819" gradientTransform="matrix(26.6014 -26.6014 26.6012 26.6012 -10263.4277 -10028.3281)">
			<stop  offset="0" style="stop-color:#00A551"/>
			<stop  offset="1" style="stop-color:#FFF100"/>
		</linearGradient>
		<polygon class="st1" points="387.7,484.9 616,265.3 387.7,45.7 159.5,265.3 		"/>
		
			<use xlink:href="#SVGID_4_"  style="overflow:visible;fill-rule:evenodd;clip-rule:evenodd;fill:none;stroke:#000000;stroke-width:0.5;stroke-miterlimit:10;"/>
	</g>
	<g>
		<defs>
			<path id="SVGID_7_" d="M5.2,276.8c77.4-0.3,108.6,139.6,189.2,76c-43.7-37-81.4-60.7-111.9-68.1c37.8,2.6,69.1,13.2,113.5,55.4
				C179.4,266.8,118.9,245.1,5.2,276.8"/>
		</defs>
		<clipPath id="SVGID_8_">
			<use xlink:href="#SVGID_7_"  style="overflow:visible;"/>
		</clipPath>
		
			<linearGradient id="SVGID_9_" gradientUnits="userSpaceOnUse" x1="14.6953" y1="384.7501" x2="21.8247" y2="384.7501" gradientTransform="matrix(-27.6726 -13.2347 10.9412 -22.877 -3609.7139 9371.4951)">
			<stop  offset="0" style="stop-color:#00A551"/>
			<stop  offset="1" style="stop-color:#FFF100"/>
		</linearGradient>
		<polygon class="st2" points="265.3,277 40.7,173.7 -64.1,384.5 160.5,487.9 		"/>
		
			<use xlink:href="#SVGID_7_"  style="overflow:visible;fill-rule:evenodd;clip-rule:evenodd;fill:none;stroke:#000000;stroke-width:0.5;stroke-miterlimit:10;"/>
	</g>
	<g>
		<defs>
			<path id="SVGID_10_" d="M238.4,13.1c-107.2,0-194.1,83.6-194.1,186.7c0,17.1,2.4,33.7,6.9,49.4l-10.4,0.3
				c-4.4-15.9-6.8-32.5-6.8-49.7c0-107,91.5-193.7,204.4-193.7c106.1,0,193.3,76.7,203.4,174.8l-10.3,0.3
				C421.8,86.8,339.1,13.1,238.4,13.1"/>
		</defs>
		<clipPath id="SVGID_11_">
			<use xlink:href="#SVGID_10_"  style="overflow:visible;"/>
		</clipPath>
		
			<linearGradient id="SVGID_12_" gradientUnits="userSpaceOnUse" x1="1.9076" y1="392.6181" x2="9.1296" y2="392.6181" gradientTransform="matrix(56.4565 0 0 35.0192 -73.6341 -13621.375)">
			<stop  offset="0" style="stop-color:#F48120"/>
			<stop  offset="1" style="stop-color:#FFF100"/>
		</linearGradient>
		<rect x="34.1" y="6.1" class="st3" width="407.7" height="243.3"/>
		
			<use xlink:href="#SVGID_10_"  style="overflow:visible;fill-rule:evenodd;clip-rule:evenodd;fill:none;stroke:#000000;stroke-width:0.5;stroke-miterlimit:10;"/>
	</g>
	<g>
		<defs>
			<path id="SVGID_13_" d="M45.4,420.2c8.6,6.3,17.2,12.5,25.7,18.8c142-60.4,266.7-81.9,375.8-68.4
				C332,342.3,195.9,364.1,45.4,420.2"/>
		</defs>
		<clipPath id="SVGID_14_">
			<use xlink:href="#SVGID_13_"  style="overflow:visible;"/>
		</clipPath>
		
			<linearGradient id="SVGID_15_" gradientUnits="userSpaceOnUse" x1="2.001" y1="394.6895" x2="8.3696" y2="394.6895" gradientTransform="matrix(52.7222 -35.1482 31.3403 47.0105 -12400.7822 -17979.0527)">
			<stop  offset="0" style="stop-color:#FFF100"/>
			<stop  offset="1" style="stop-color:#00A551"/>
		</linearGradient>
		<polygon class="st4" points="168.9,617.4 493.3,409.3 323.3,164 -1,372.1 		"/>
		
			<use xlink:href="#SVGID_13_"  style="overflow:visible;fill-rule:evenodd;clip-rule:evenodd;fill:none;stroke:#000000;stroke-width:0.5;stroke-miterlimit:10;"/>
	</g>
	<g>
		<defs>
			<path id="SVGID_16_" d="M162.7,430.1c82.5-51.8,165.3-66.4,243-44.6c-90.2-4.2-160.3,16.4-224.4,60.4
				C174.8,439.7,169.3,436.4,162.7,430.1"/>
		</defs>
		<clipPath id="SVGID_17_">
			<use xlink:href="#SVGID_16_"  style="overflow:visible;"/>
		</clipPath>
		
			<linearGradient id="SVGID_18_" gradientUnits="userSpaceOnUse" x1="0.393" y1="411.3638" x2="7.6151" y2="411.3638" gradientTransform="matrix(33.641 0 0 10.1061 149.5236 -3752.407)">
			<stop  offset="0" style="stop-color:#F48120"/>
			<stop  offset="1" style="stop-color:#FFF100"/>
		</linearGradient>
		<rect x="162.7" y="363.7" class="st5" width="243" height="82.3"/>
		
			<use xlink:href="#SVGID_16_"  style="overflow:visible;fill-rule:evenodd;clip-rule:evenodd;fill:none;stroke:#000000;stroke-width:0.5;stroke-miterlimit:10;"/>
	</g>
</g>
<g>
	<g>
		<linearGradient id="SVGID_19_" gradientUnits="userSpaceOnUse" x1="1113.4663" y1="89.248" x2="1113.4663" y2="373.0479">
			<stop  offset="0" style="stop-color:#FAF025"/>
			<stop  offset="0.1358" style="stop-color:#CFE22D"/>
			<stop  offset="0.3685" style="stop-color:#8CCD3A"/>
			<stop  offset="0.5792" style="stop-color:#56BC44"/>
			<stop  offset="0.7603" style="stop-color:#2FAF4B"/>
			<stop  offset="0.9047" style="stop-color:#18A84F"/>
			<stop  offset="0.9944" style="stop-color:#0FA551"/>
		</linearGradient>
		<path class="st6" d="M683.6,109.9V301h-28.5v-83.6h-81.8V301h-28.5V109.9h28.5v82h81.8v-82H683.6z"/>
		<linearGradient id="SVGID_20_" gradientUnits="userSpaceOnUse" x1="1113.4663" y1="89.248" x2="1113.4663" y2="373.0479">
			<stop  offset="0" style="stop-color:#FAF025"/>
			<stop  offset="0.1358" style="stop-color:#CFE22D"/>
			<stop  offset="0.3685" style="stop-color:#8CCD3A"/>
			<stop  offset="0.5792" style="stop-color:#56BC44"/>
			<stop  offset="0.7603" style="stop-color:#2FAF4B"/>
			<stop  offset="0.9047" style="stop-color:#18A84F"/>
			<stop  offset="0.9944" style="stop-color:#0FA551"/>
		</linearGradient>
		<path class="st7" d="M701.5,184.1c5.8-11.7,13.6-20.9,23.5-27.4c9.9-6.5,20.9-9.8,32.9-9.8c10.8,0,20.3,2.3,28.4,7
			c8.1,4.7,14.5,10.5,19.4,17.5v-22h28.8V301h-28.8v-22.5c-4.8,7.1-11.4,13.1-19.8,17.9c-8.3,4.8-17.8,7.1-28.5,7.1
			c-11.8,0-22.7-3.3-32.5-10c-9.8-6.7-17.6-16-23.4-28c-5.8-12-8.6-25.6-8.6-40.8C692.8,209.3,695.7,195.9,701.5,184.1z
			 M799.7,197.9c-3.9-7.7-9-13.6-15.4-17.6c-6.3-4-13.2-6.1-20.5-6.1c-7.3,0-14.2,2-20.5,5.9c-6.3,3.9-11.5,9.7-15.4,17.3
			c-3.9,7.6-5.9,16.6-5.9,27.1s2,19.6,5.9,27.5c3.9,7.9,9.1,13.9,15.5,18c6.4,4.1,13.2,6.2,20.4,6.2c7.3,0,14.2-2,20.5-6
			c6.3-4,11.5-9.9,15.4-17.7c3.9-7.8,5.9-16.9,5.9-27.4C805.6,214.6,803.6,205.6,799.7,197.9z"/>
		<linearGradient id="SVGID_21_" gradientUnits="userSpaceOnUse" x1="1113.4663" y1="89.248" x2="1113.4663" y2="373.0479">
			<stop  offset="0" style="stop-color:#FAF025"/>
			<stop  offset="0.1358" style="stop-color:#CFE22D"/>
			<stop  offset="0.3685" style="stop-color:#8CCD3A"/>
			<stop  offset="0.5792" style="stop-color:#56BC44"/>
			<stop  offset="0.7603" style="stop-color:#2FAF4B"/>
			<stop  offset="0.9047" style="stop-color:#18A84F"/>
			<stop  offset="0.9944" style="stop-color:#0FA551"/>
		</linearGradient>
		<path class="st8" d="M898.2,153.5c6.9-4.3,15.1-6.5,24.6-6.5v32.5h-7.2c-11.2,0-19.6,3.1-25.4,9.3c-5.8,6.2-8.6,17-8.6,32.5V301
			h-28.5V149.5h28.5v22C885.8,163.8,891.3,157.8,898.2,153.5z"/>
		<linearGradient id="SVGID_22_" gradientUnits="userSpaceOnUse" x1="1113.4663" y1="89.248" x2="1113.4663" y2="373.0479">
			<stop  offset="0" style="stop-color:#FAF025"/>
			<stop  offset="0.1358" style="stop-color:#CFE22D"/>
			<stop  offset="0.3685" style="stop-color:#8CCD3A"/>
			<stop  offset="0.5792" style="stop-color:#56BC44"/>
			<stop  offset="0.7603" style="stop-color:#2FAF4B"/>
			<stop  offset="0.9047" style="stop-color:#18A84F"/>
			<stop  offset="0.9944" style="stop-color:#0FA551"/>
		</linearGradient>
		<path class="st9" d="M1126.2,154.4c8.6,5,15.3,12.3,20.2,22c4.9,9.7,7.4,21.5,7.4,35.2V301h-28.2v-84.7c0-13.6-3.1-24-9.2-31.2
			c-6.2-7.2-14.6-10.9-25.2-10.9c-10.7,0-19.1,3.6-25.4,10.9c-6.2,7.2-9.4,17.6-9.4,31.2V301h-28.2v-84.7c0-13.6-3.1-24-9.2-31.2
			c-6.2-7.2-14.6-10.9-25.2-10.9c-10.7,0-19.1,3.6-25.4,10.9c-6.2,7.2-9.4,17.6-9.4,31.2V301h-28.5V149.5h28.5v17.3
			c4.7-6.2,10.6-11.1,17.8-14.6c7.2-3.5,14.8-5.2,23-5.2c11,0,20.8,2.6,29.5,7.7c8.7,5.1,15.3,12.6,20,22.3
			c4.2-9.2,10.7-16.5,19.5-21.9c8.8-5.4,18.3-8.1,28.5-8.1C1107.9,147,1117.6,149.5,1126.2,154.4z"/>
		<linearGradient id="SVGID_23_" gradientUnits="userSpaceOnUse" x1="1113.4663" y1="89.248" x2="1113.4663" y2="373.0479">
			<stop  offset="0" style="stop-color:#FAF025"/>
			<stop  offset="0.1358" style="stop-color:#CFE22D"/>
			<stop  offset="0.3685" style="stop-color:#8CCD3A"/>
			<stop  offset="0.5792" style="stop-color:#56BC44"/>
			<stop  offset="0.7603" style="stop-color:#2FAF4B"/>
			<stop  offset="0.9047" style="stop-color:#18A84F"/>
			<stop  offset="0.9944" style="stop-color:#0FA551"/>
		</linearGradient>
		<path class="st10" d="M1195.8,293.7c-10.5-6.5-18.8-15.7-24.8-27.5c-6-11.8-9-25.5-9-41.1c0-15.4,3.1-29.1,9.2-41
			c6.2-11.9,14.6-21.1,25.2-27.5c10.7-6.4,22.6-9.6,35.8-9.6c13.2,0,25.1,3.2,35.8,9.6c10.7,6.4,19.1,15.6,25.2,27.5
			c6.2,11.9,9.2,25.6,9.2,41c0,15.4-3.2,29.1-9.5,41c-6.3,11.9-15,21.1-25.9,27.6c-10.9,6.5-23,9.8-36.1,9.8
			C1218.1,303.5,1206.3,300.2,1195.8,293.7z M1251.7,270.5c6.4-3.8,11.6-9.6,15.6-17.3c4-7.7,6-17.1,6-28.1s-1.9-20.3-5.8-27.9
			c-3.8-7.6-8.9-13.3-15.2-17.2c-6.3-3.8-13.2-5.8-20.5-5.8c-7.3,0-14.1,1.9-20.4,5.8s-11.2,9.6-14.9,17.2
			c-3.7,7.6-5.5,16.9-5.5,27.9c0,16.3,3.8,28.9,11.4,37.8c7.6,8.9,17.1,13.3,28.6,13.3C1238.4,276.2,1245.3,274.3,1251.7,270.5z"/>
		<linearGradient id="SVGID_24_" gradientUnits="userSpaceOnUse" x1="1113.4663" y1="89.248" x2="1113.4663" y2="373.0479">
			<stop  offset="0" style="stop-color:#FAF025"/>
			<stop  offset="0.1358" style="stop-color:#CFE22D"/>
			<stop  offset="0.3685" style="stop-color:#8CCD3A"/>
			<stop  offset="0.5792" style="stop-color:#56BC44"/>
			<stop  offset="0.7603" style="stop-color:#2FAF4B"/>
			<stop  offset="0.9047" style="stop-color:#18A84F"/>
			<stop  offset="0.9944" style="stop-color:#0FA551"/>
		</linearGradient>
		<path class="st11" d="M1410.7,154.4c8.6,5,15.3,12.3,20.1,22c4.8,9.7,7.2,21.5,7.2,35.2V301h-28.2v-84.7c0-13.6-3.1-24-9.2-31.2
			c-6.2-7.2-14.6-10.9-25.2-10.9c-10.7,0-19.1,3.6-25.4,10.9c-6.2,7.2-9.4,17.6-9.4,31.2V301h-28.5V149.5h28.5v17.3
			c4.7-6.2,10.6-11.1,17.9-14.6c7.2-3.5,15-5.2,23.1-5.2C1392.4,147,1402.1,149.5,1410.7,154.4z"/>
		<linearGradient id="SVGID_25_" gradientUnits="userSpaceOnUse" x1="1113.4663" y1="89.248" x2="1113.4663" y2="373.0479">
			<stop  offset="0" style="stop-color:#FAF025"/>
			<stop  offset="0.1358" style="stop-color:#CFE22D"/>
			<stop  offset="0.3685" style="stop-color:#8CCD3A"/>
			<stop  offset="0.5792" style="stop-color:#56BC44"/>
			<stop  offset="0.7603" style="stop-color:#2FAF4B"/>
			<stop  offset="0.9047" style="stop-color:#18A84F"/>
			<stop  offset="0.9944" style="stop-color:#0FA551"/>
		</linearGradient>
		<path class="st12" d="M1457.1,123.6c-3.5-3.9-5.2-8.6-5.2-14.3c0-5.7,1.8-10.5,5.2-14.3s7.8-5.8,13-5.8c5,0,9.2,1.9,12.8,5.8
			s5.2,8.6,5.2,14.3c0,5.7-1.8,10.4-5.2,14.3s-7.8,5.8-12.8,5.8C1464.9,129.4,1460.6,127.5,1457.1,123.6z M1484.1,149.5V301h-28.5
			V149.5H1484.1z"/>
		<linearGradient id="SVGID_26_" gradientUnits="userSpaceOnUse" x1="1113.4663" y1="89.248" x2="1113.4663" y2="373.0479">
			<stop  offset="0" style="stop-color:#FAF025"/>
			<stop  offset="0.1358" style="stop-color:#CFE22D"/>
			<stop  offset="0.3685" style="stop-color:#8CCD3A"/>
			<stop  offset="0.5792" style="stop-color:#56BC44"/>
			<stop  offset="0.7603" style="stop-color:#2FAF4B"/>
			<stop  offset="0.9047" style="stop-color:#18A84F"/>
			<stop  offset="0.9944" style="stop-color:#0FA551"/>
		</linearGradient>
		<path class="st13" d="M1531.3,330.7c0,14.8-3.4,25.6-10.1,32.3c-6.8,6.7-16.5,10-29.4,10h-14.8v-26.4h9.8c5.8,0,10-1.2,12.4-3.7
			c2.4-2.5,3.6-6.6,3.6-12.2V149.5h28.5V330.7z M1504.3,123.6c-3.5-3.9-5.2-8.6-5.2-14.3c0-5.7,1.8-10.5,5.2-14.3s7.8-5.8,13-5.8
			c5,0,9.2,1.9,12.8,5.8s5.2,8.6,5.2,14.3c0,5.7-1.8,10.4-5.2,14.3s-7.8,5.8-12.8,5.8C1512.2,129.4,1507.8,127.5,1504.3,123.6z"/>
		<linearGradient id="SVGID_27_" gradientUnits="userSpaceOnUse" x1="1113.4663" y1="89.248" x2="1113.4663" y2="373.0479">
			<stop  offset="0" style="stop-color:#FAF025"/>
			<stop  offset="0.1358" style="stop-color:#CFE22D"/>
			<stop  offset="0.3685" style="stop-color:#8CCD3A"/>
			<stop  offset="0.5792" style="stop-color:#56BC44"/>
			<stop  offset="0.7603" style="stop-color:#2FAF4B"/>
			<stop  offset="0.9047" style="stop-color:#18A84F"/>
			<stop  offset="0.9944" style="stop-color:#0FA551"/>
		</linearGradient>
		<path class="st14" d="M1549.2,184.1c5.8-11.7,13.6-20.9,23.5-27.4c9.9-6.5,20.9-9.8,32.9-9.8c10.8,0,20.3,2.3,28.4,7
			c8.1,4.7,14.5,10.5,19.4,17.5v-22h28.8V301h-28.8v-22.5c-4.8,7.1-11.4,13.1-19.8,17.9c-8.3,4.8-17.8,7.1-28.5,7.1
			c-11.8,0-22.7-3.3-32.5-10c-9.8-6.7-17.6-16-23.4-28c-5.8-12-8.6-25.6-8.6-40.8C1540.6,209.3,1543.5,195.9,1549.2,184.1z
			 M1647.5,197.9c-3.9-7.7-9-13.6-15.4-17.6c-6.3-4-13.2-6.1-20.5-6.1c-7.3,0-14.2,2-20.5,5.9c-6.3,3.9-11.5,9.7-15.4,17.3
			c-3.9,7.6-5.9,16.6-5.9,27.1s2,19.6,5.9,27.5c3.9,7.9,9.1,13.9,15.5,18c6.4,4.1,13.2,6.2,20.4,6.2c7.3,0,14.2-2,20.5-6
			c6.3-4,11.5-9.9,15.4-17.7c3.9-7.8,5.9-16.9,5.9-27.4C1653.3,214.6,1651.4,205.6,1647.5,197.9z"/>
	</g>
	<rect x="526.1" y="116" class="st15" width="1208.9" height="267"/>
	<text transform="matrix(1 0 0 1.1 526.1025 300.998)" class="st16 st17 st18 st19">Harmonija</text>
</g>
</svg>
